Coordinates
version=1
nRows=12
nColumns=24
inDegrees=yes

Units are S.I. units (second, meters, Newtons, ...)
Angles are in degrees.

endheader
time	pelvis_tilt	pelvis_list	pelvis_rotation	pelvis_tx	pelvis_ty	pelvis_tz	hip_flexion_r	hip_adduction_r	hip_rotation_r	knee_angle_r	ankle_angle_r	subtalar_angle_r	mtp_angle_r	hip_flexion_l	hip_adduction_l	hip_rotation_l	knee_angle_l	ankle_angle_l	subtalar_angle_l	mtp_angle_l	lumbar_extension	lumbar_bending	lumbar_rotation
      1.66066667	      0.68439933	     10.85176487	     -6.76600163	      1.37579783	      1.00032605	      0.28713396	     13.03253588	    -14.92417355	      2.41468946	    -70.06242504	     -4.38220296	    -11.51499190	      6.45920092	     10.16658112	     16.10674654	      5.71340026	    -15.80902385	      3.49438520	    -20.42000839	     -3.74432391	    -11.47300138	     -7.14158641	      1.56434544
      1.66483333	      0.67911002	     10.60100403	     -6.56577985	      1.38062255	      1.00141620	      0.28665358	     13.54686600	    -14.58356073	      2.26383287	    -69.80899671	     -3.55526381	    -11.42422492	      6.38170798	      9.57710565	     15.91117151	      6.05280414	    -15.39214415	      3.55270471	    -20.36353819	     -3.72998214	    -11.54185574	     -6.78396474	      1.34558446
      1.66900000	      0.75840641	     10.40519572	     -6.38677258	      1.38557015	      1.00256974	      0.28617162	     13.96631277	    -14.33568674	      2.10814329	    -69.50932192	     -2.74208945	    -11.20828445	      6.22545442	      8.85262195	     15.78085187	      6.43729985	    -14.86249441	      3.55549770	    -20.40388941	     -3.70504117	    -11.63503797	     -6.47020845	      0.80140330
      1.67316667	      0.76574979	     10.20656039	     -6.19474325	      1.39040421	      1.00357436	      0.28568279	     14.46938587	    -14.07027945	      1.95410523	    -69.18171191	     -1.93413655	    -11.06137113	      6.05416035	      8.23218467	     15.63318144	      6.80987461	    -14.37283506	      3.52728033	    -20.44328128	     -3.67860576	    -11.68219426	     -6.15222318	      0.39133799
      1.67733333	      0.79458413	      9.99859064	     -5.99626579	      1.39525966	      1.00456756	      0.28520814	     14.92963561	    -13.79593602	      1.79251302	    -68.80290315	     -1.15612257	    -10.92854231	      5.88714841	      7.58822654	     15.46990841	      7.16872767	    -13.88904330	      3.52438233	    -20.45337653	     -3.65071044	    -11.74829059	     -5.83364977	      0.01381778
      1.68150000	      0.83401910	      9.80903978	     -5.79813740	      1.40014181	      1.00555318	      0.28474513	     15.37002207	    -13.54868194	      1.62144194	    -68.37699541	     -0.37368681	    -10.82237645	      5.65173640	      6.92941863	     15.32020353	      7.52729569	    -13.38798762	      3.45311623	    -20.48598431	     -3.61722487	    -11.83366309	     -5.54041524	     -0.42002284
      1.68566667	      0.84246184	      9.58936330	     -5.59562090	      1.40496803	      1.00645250	      0.28427759	     15.83206403	    -13.26094839	      1.45440397	    -67.90178451	      0.31391820	    -10.68006335	      5.49366440	      6.31246744	     15.12848190	      7.86579458	    -12.90814250	      3.49437206	    -20.46793809	     -3.58987869	    -11.87257639	     -5.20077696	     -0.74654015
      1.68983333	      0.85744687	      9.41577554	     -5.39753390	      1.40981568	      1.00728433	      0.28383860	     16.29041948	    -13.02750595	      1.29375150	    -67.40538864	      1.06423899	    -10.57513533	      5.25201342	      5.69531361	     14.97975176	      8.20114137	    -12.42680268	      3.43864460	    -20.47876142	     -3.55276198	    -11.92574016	     -4.93390220	     -1.17272493
      1.69400000	      0.88253416	      9.20410480	     -5.20152394	      1.41463808	      1.00811685	      0.28340390	     16.72162193	    -12.74847372	      1.13599623	    -66.84868033	      1.69877309	    -10.44998380	      5.11274862	      5.06981065	     14.78391342	      8.52110791	    -11.94873957	      3.47769057	    -20.43235466	     -3.52539792	    -11.99601546	     -4.61742685	     -1.45255385
      1.69816667	      0.89616138	      9.01612818	     -5.00217583	      1.41947127	      1.00887058	      0.28299176	     17.15743768	    -12.49531592	      0.97889913	    -66.25978568	      2.35222923	    -10.35170952	      4.97724325	      4.46269907	     14.60551921	      8.82693749	    -11.47791991	      3.47882039	    -20.39694289	     -3.49814271	    -12.03961784	     -4.33782913	     -1.80284793
      1.70233333	      0.91871015	      8.86018442	     -4.80836517	      1.42430505	      1.00956748	      0.28257517	     17.58739055	    -12.28793706	      0.82016669	    -65.64576659	      2.97942991	    -10.25461008	      4.82348750	      3.83527503	     14.45640993	      9.12471374	    -10.96883427	      3.45961887	    -20.37888279	     -3.46654223	    -12.07743689	     -4.06414290	     -2.18581776
      1.70650000	      0.93699416	      8.68518617	     -4.61534169	      1.42914514	      1.01022941	      0.28219176	     18.00361729	    -12.04834929	      0.67483697	    -64.98042672	      3.53925213	    -10.20901343	      4.67206940	      3.22447006	     14.27901538	      9.40781979	    -10.48387668	      3.45107856	    -20.33885313	     -3.43227154	    -12.12154358	     -3.79683482	     -2.51968759
